<svg width="320" height="65" viewBox="0 0 320 65" fill="none" xmlns="http://www.w3.org/2000/svg">
<path d="M10 45C11.7143 49.6329 15.3671 53.2857 20 55C15.3671 56.7143 11.7143 60.3671 10 65C8.28567 60.3671 4.63291 56.7143 0 55C4.63291 53.2857 8.28567 49.6329 10 45Z" fill="url(#paint0_linear_11_147)"/>
<path d="M114 30C115.714 34.6329 119.367 38.2857 124 40C119.367 41.7143 115.714 45.3671 114 50C112.286 45.3671 108.633 41.7143 104 40C108.633 38.2857 112.286 34.6329 114 30Z" fill="url(#paint1_linear_11_147)"/>
<path d="M264 30C265.714 34.6329 269.367 38.2857 274 40C269.367 41.7143 265.714 45.3671 264 50C262.286 45.3671 258.633 41.7143 254 40C258.633 38.2857 262.286 34.6329 264 30Z" fill="url(#paint2_linear_11_147)"/>
<path d="M100 45C101.714 49.6329 105.367 53.2857 110 55C105.367 56.7143 101.714 60.3671 100 65C98.2857 60.3671 94.6329 56.7143 90 55C94.6329 53.2857 98.2857 49.6329 100 45Z" fill="url(#paint3_linear_11_147)"/>
<path d="M250 45C251.714 49.6329 255.367 53.2857 260 55C255.367 56.7143 251.714 60.3671 250 65C248.286 60.3671 244.633 56.7143 240 55C244.633 53.2857 248.286 49.6329 250 45Z" fill="url(#paint4_linear_11_147)"/>
<path d="M40 45C41.7143 49.6329 45.3671 53.2857 50 55C45.3671 56.7143 41.7143 60.3671 40 65C38.2857 60.3671 34.6329 56.7143 30 55C34.6329 53.2857 38.2857 49.6329 40 45Z" fill="url(#paint5_linear_11_147)"/>
<path d="M25 0C26.7143 4.63291 30.3671 8.28567 35 10C30.3671 11.7143 26.7143 15.3671 25 20C23.2857 15.3671 19.6329 11.7143 15 10C19.6329 8.28567 23.2857 4.63291 25 0Z" fill="url(#paint6_linear_11_147)"/>
<path d="M25 30C26.7143 34.6329 30.3671 38.2857 35 40C30.3671 41.7143 26.7143 45.3671 25 50C23.2857 45.3671 19.6329 41.7143 15 40C19.6329 38.2857 23.2857 34.6329 25 30Z" fill="url(#paint7_linear_11_147)"/>
<path d="M55 30C56.7143 34.6329 60.3671 38.2857 65 40C60.3671 41.7143 56.7143 45.3671 55 50C53.2857 45.3671 49.6329 41.7143 45 40C49.6329 38.2857 53.2857 34.6329 55 30Z" fill="url(#paint8_linear_11_147)"/>
<path d="M70 45C71.7143 49.6329 75.3671 53.2857 80 55C75.3671 56.7143 71.7143 60.3671 70 65C68.2857 60.3671 64.6329 56.7143 60 55C64.6329 53.2857 68.2857 49.6329 70 45Z" fill="url(#paint9_linear_11_147)"/>
<path d="M190 15C191.714 19.6329 195.367 23.2857 200 25C195.367 26.7143 191.714 30.3671 190 35C188.286 30.3671 184.633 26.7143 180 25C184.633 23.2857 188.286 19.6329 190 15Z" fill="url(#paint10_linear_11_147)"/>
<path d="M190 45C191.714 49.6329 195.367 53.2857 200 55C195.367 56.7143 191.714 60.3671 190 65C188.286 60.3671 184.633 56.7143 180 55C184.633 53.2857 188.286 49.6329 190 45Z" fill="url(#paint11_linear_11_147)"/>
<path d="M130 45C131.714 49.6329 135.367 53.2857 140 55C135.367 56.7143 131.714 60.3671 130 65C128.286 60.3671 124.633 56.7143 120 55C124.633 53.2857 128.286 49.6329 130 45Z" fill="url(#paint12_linear_11_147)"/>
<path d="M280 45C281.714 49.6329 285.367 53.2857 290 55C285.367 56.7143 281.714 60.3671 280 65C278.286 60.3671 274.633 56.7143 270 55C274.633 53.2857 278.286 49.6329 280 45Z" fill="url(#paint13_linear_11_147)"/>
<path d="M220 15C221.714 19.6329 225.367 23.2857 230 25C225.367 26.7143 221.714 30.3671 220 35C218.286 30.3671 214.633 26.7143 210 25C214.633 23.2857 218.286 19.6329 220 15Z" fill="url(#paint14_linear_11_147)"/>
<path d="M220 45C221.714 49.6329 225.367 53.2857 230 55C225.367 56.7143 221.714 60.3671 220 65C218.286 60.3671 214.633 56.7143 210 55C214.633 53.2857 218.286 49.6329 220 45Z" fill="url(#paint15_linear_11_147)"/>
<path d="M160 45C161.714 49.6329 165.367 53.2857 170 55C165.367 56.7143 161.714 60.3671 160 65C158.286 60.3671 154.633 56.7143 150 55C154.633 53.2857 158.286 49.6329 160 45Z" fill="url(#paint16_linear_11_147)"/>
<path d="M310 45C311.714 49.6329 315.367 53.2857 320 55C315.367 56.7143 311.714 60.3671 310 65C308.286 60.3671 304.633 56.7143 300 55C304.633 53.2857 308.286 49.6329 310 45Z" fill="url(#paint17_linear_11_147)"/>
<path d="M205 0C206.714 4.63291 210.367 8.28567 215 10C210.367 11.7143 206.714 15.3671 205 20C203.286 15.3671 199.633 11.7143 195 10C199.633 8.28567 203.286 4.63291 205 0Z" fill="url(#paint18_linear_11_147)"/>
<path d="M145 30C146.714 34.6329 150.367 38.2857 155 40C150.367 41.7143 146.714 45.3671 145 50C143.286 45.3671 139.633 41.7143 135 40C139.633 38.2857 143.286 34.6329 145 30Z" fill="url(#paint19_linear_11_147)"/>
<path d="M295 30C296.714 34.6329 300.367 38.2857 305 40C300.367 41.7143 296.714 45.3671 295 50C293.286 45.3671 289.633 41.7143 285 40C289.633 38.2857 293.286 34.6329 295 30Z" fill="url(#paint20_linear_11_147)"/>
<path d="M175 0C176.714 4.63291 180.367 8.28567 185 10C180.367 11.7143 176.714 15.3671 175 20C173.286 15.3671 169.633 11.7143 165 10C169.633 8.28567 173.286 4.63291 175 0Z" fill="url(#paint21_linear_11_147)"/>
<path d="M100 15C101.714 19.6329 105.367 23.2857 110 25C105.367 26.7143 101.714 30.3671 100 35C98.2857 30.3671 94.6329 26.7143 90 25C94.6329 23.2857 98.2857 19.6329 100 15Z" fill="url(#paint22_linear_11_147)"/>
<path d="M114 0C115.714 4.63291 119.367 8.28567 124 10C119.367 11.7143 115.714 15.3671 114 20C112.286 15.3671 108.633 11.7143 104 10C108.633 8.28567 112.286 4.63291 114 0Z" fill="url(#paint23_linear_11_147)"/>
<path d="M175 30C176.714 34.6329 180.367 38.2857 185 40C180.367 41.7143 176.714 45.3671 175 50C173.286 45.3671 169.633 41.7143 165 40C169.633 38.2857 173.286 34.6329 175 30Z" fill="url(#paint24_linear_11_147)"/>
<path d="M280 15C281.714 19.6329 285.367 23.2857 290 25C285.367 26.7143 281.714 30.3671 280 35C278.286 30.3671 274.633 26.7143 270 25C274.633 23.2857 278.286 19.6329 280 15Z" fill="url(#paint25_linear_11_147)"/>
<path d="M264 0C265.714 4.63291 269.367 8.28567 274 10C269.367 11.7143 265.714 15.3671 264 20C262.286 15.3671 258.633 11.7143 254 10C258.633 8.28567 262.286 4.63291 264 0Z" fill="url(#paint26_linear_11_147)"/>
<defs>
<linearGradient id="paint0_linear_11_147" x1="146" y1="-45" x2="169" y2="82" gradientUnits="userSpaceOnUse">
<stop stop-color="#FF00A8"/>
<stop offset="1" stop-color="#FFAA00"/>
</linearGradient>
<linearGradient id="paint1_linear_11_147" x1="146" y1="-45" x2="169" y2="82" gradientUnits="userSpaceOnUse">
<stop stop-color="#FF00A8"/>
<stop offset="1" stop-color="#FFAA00"/>
</linearGradient>
<linearGradient id="paint2_linear_11_147" x1="146" y1="-45" x2="169" y2="82" gradientUnits="userSpaceOnUse">
<stop stop-color="#FF00A8"/>
<stop offset="1" stop-color="#FFAA00"/>
</linearGradient>
<linearGradient id="paint3_linear_11_147" x1="146" y1="-45" x2="169" y2="82" gradientUnits="userSpaceOnUse">
<stop stop-color="#FF00A8"/>
<stop offset="1" stop-color="#FFAA00"/>
</linearGradient>
<linearGradient id="paint4_linear_11_147" x1="146" y1="-45" x2="169" y2="82" gradientUnits="userSpaceOnUse">
<stop stop-color="#FF00A8"/>
<stop offset="1" stop-color="#FFAA00"/>
</linearGradient>
<linearGradient id="paint5_linear_11_147" x1="146" y1="-45" x2="169" y2="82" gradientUnits="userSpaceOnUse">
<stop stop-color="#FF00A8"/>
<stop offset="1" stop-color="#FFAA00"/>
</linearGradient>
<linearGradient id="paint6_linear_11_147" x1="146" y1="-45" x2="169" y2="82" gradientUnits="userSpaceOnUse">
<stop stop-color="#FF00A8"/>
<stop offset="1" stop-color="#FFAA00"/>
</linearGradient>
<linearGradient id="paint7_linear_11_147" x1="146" y1="-45" x2="169" y2="82" gradientUnits="userSpaceOnUse">
<stop stop-color="#FF00A8"/>
<stop offset="1" stop-color="#FFAA00"/>
</linearGradient>
<linearGradient id="paint8_linear_11_147" x1="146" y1="-45" x2="169" y2="82" gradientUnits="userSpaceOnUse">
<stop stop-color="#FF00A8"/>
<stop offset="1" stop-color="#FFAA00"/>
</linearGradient>
<linearGradient id="paint9_linear_11_147" x1="146" y1="-45" x2="169" y2="82" gradientUnits="userSpaceOnUse">
<stop stop-color="#FF00A8"/>
<stop offset="1" stop-color="#FFAA00"/>
</linearGradient>
<linearGradient id="paint10_linear_11_147" x1="146" y1="-45" x2="169" y2="82" gradientUnits="userSpaceOnUse">
<stop stop-color="#FF00A8"/>
<stop offset="1" stop-color="#FFAA00"/>
</linearGradient>
<linearGradient id="paint11_linear_11_147" x1="146" y1="-45" x2="169" y2="82" gradientUnits="userSpaceOnUse">
<stop stop-color="#FF00A8"/>
<stop offset="1" stop-color="#FFAA00"/>
</linearGradient>
<linearGradient id="paint12_linear_11_147" x1="146" y1="-45" x2="169" y2="82" gradientUnits="userSpaceOnUse">
<stop stop-color="#FF00A8"/>
<stop offset="1" stop-color="#FFAA00"/>
</linearGradient>
<linearGradient id="paint13_linear_11_147" x1="146" y1="-45" x2="169" y2="82" gradientUnits="userSpaceOnUse">
<stop stop-color="#FF00A8"/>
<stop offset="1" stop-color="#FFAA00"/>
</linearGradient>
<linearGradient id="paint14_linear_11_147" x1="146" y1="-45" x2="169" y2="82" gradientUnits="userSpaceOnUse">
<stop stop-color="#FF00A8"/>
<stop offset="1" stop-color="#FFAA00"/>
</linearGradient>
<linearGradient id="paint15_linear_11_147" x1="146" y1="-45" x2="169" y2="82" gradientUnits="userSpaceOnUse">
<stop stop-color="#FF00A8"/>
<stop offset="1" stop-color="#FFAA00"/>
</linearGradient>
<linearGradient id="paint16_linear_11_147" x1="146" y1="-45" x2="169" y2="82" gradientUnits="userSpaceOnUse">
<stop stop-color="#FF00A8"/>
<stop offset="1" stop-color="#FFAA00"/>
</linearGradient>
<linearGradient id="paint17_linear_11_147" x1="146" y1="-45" x2="169" y2="82" gradientUnits="userSpaceOnUse">
<stop stop-color="#FF00A8"/>
<stop offset="1" stop-color="#FFAA00"/>
</linearGradient>
<linearGradient id="paint18_linear_11_147" x1="146" y1="-45" x2="169" y2="82" gradientUnits="userSpaceOnUse">
<stop stop-color="#FF00A8"/>
<stop offset="1" stop-color="#FFAA00"/>
</linearGradient>
<linearGradient id="paint19_linear_11_147" x1="146" y1="-45" x2="169" y2="82" gradientUnits="userSpaceOnUse">
<stop stop-color="#FF00A8"/>
<stop offset="1" stop-color="#FFAA00"/>
</linearGradient>
<linearGradient id="paint20_linear_11_147" x1="146" y1="-45" x2="169" y2="82" gradientUnits="userSpaceOnUse">
<stop stop-color="#FF00A8"/>
<stop offset="1" stop-color="#FFAA00"/>
</linearGradient>
<linearGradient id="paint21_linear_11_147" x1="146" y1="-45" x2="169" y2="82" gradientUnits="userSpaceOnUse">
<stop stop-color="#FF00A8"/>
<stop offset="1" stop-color="#FFAA00"/>
</linearGradient>
<linearGradient id="paint22_linear_11_147" x1="146" y1="-45" x2="169" y2="82" gradientUnits="userSpaceOnUse">
<stop stop-color="#FF00A8"/>
<stop offset="1" stop-color="#FFAA00"/>
</linearGradient>
<linearGradient id="paint23_linear_11_147" x1="146" y1="-45" x2="169" y2="82" gradientUnits="userSpaceOnUse">
<stop stop-color="#FF00A8"/>
<stop offset="1" stop-color="#FFAA00"/>
</linearGradient>
<linearGradient id="paint24_linear_11_147" x1="146" y1="-45" x2="169" y2="82" gradientUnits="userSpaceOnUse">
<stop stop-color="#FF00A8"/>
<stop offset="1" stop-color="#FFAA00"/>
</linearGradient>
<linearGradient id="paint25_linear_11_147" x1="146" y1="-45" x2="169" y2="82" gradientUnits="userSpaceOnUse">
<stop stop-color="#FF00A8"/>
<stop offset="1" stop-color="#FFAA00"/>
</linearGradient>
<linearGradient id="paint26_linear_11_147" x1="146" y1="-45" x2="169" y2="82" gradientUnits="userSpaceOnUse">
<stop stop-color="#FF00A8"/>
<stop offset="1" stop-color="#FFAA00"/>
</linearGradient>
</defs>
</svg>
