<svg width="24" height="24" viewBox="0 0 24 24" fill="currentColor" xmlns="http://www.w3.org/2000/svg">
<path fill-rule="evenodd" clip-rule="evenodd" d="M0.72784 12.9628C0.255592 14.0289 0 15.1979 0 16.4044V18.8985C0 21.9347 3.24992 23.864 5.91542 22.4101L19.5703 14.9619C19.9269 14.7673 20.266 14.5494 20.586 14.3105C20.3297 13.6882 19.9607 13.1166 19.4969 12.6259C19.221 12.841 18.9257 13.0353 18.6126 13.2061L4.9577 20.6543C3.62495 21.3812 2 20.4166 2 18.8985V16.4044C2 15.8019 2.08336 15.2116 2.24177 14.6475C1.66858 14.1456 1.16113 13.5793 0.72784 12.9628ZM4.50317 11.2782C4.03937 10.7875 3.6704 10.216 3.41407 9.59363C3.73405 9.35475 4.0731 9.1368 4.42975 8.94228L18.0846 1.49417C20.7501 0.040266 24 1.96952 24 5.00575V7.49978C24 8.7062 23.7444 9.87525 23.2722 10.9413C22.8389 10.3248 22.3314 9.75846 21.7582 9.25661C21.9166 8.69251 22 8.10223 22 7.49978V5.00575C22 3.48763 20.375 2.523 19.0423 3.24995L5.38745 10.6981C5.0744 10.8688 4.77905 11.0632 4.50317 11.2782Z"/>
<path fill-rule="evenodd" clip-rule="evenodd" d="M2 5.00565C2 3.48753 3.62495 2.5229 4.9577 3.24985L8.8674 5.38243L10.9558 4.24335L5.9154 1.49407C3.2499 0.0401593 0 1.96942 0 5.00565V7.49978C0 10.6103 1.69904 13.4724 4.42975 14.9619L8.86753 17.3825L10.9558 16.2434L5.38745 13.2061C3.29928 12.0671 2 9.8784 2 7.49978V5.00565ZM15.1325 18.5216L13.0442 19.6607L18.0846 22.41C20.7501 23.8639 24 21.9346 24 18.8984V16.4043C24 13.2938 22.3009 10.4317 19.5702 8.94215L15.1324 6.52153L13.0441 7.6606L18.6126 10.698C20.7007 11.837 22 14.0256 22 16.4043V18.8984C22 20.4165 20.375 21.3812 19.0423 20.6542L15.1325 18.5216Z"/>
</svg>
