<svg xmlns="http://www.w3.org/2000/svg" width="24" height="24" viewBox="0 0 24 24" fill="none">
<g opacity="0.2">
<path fill-rule="evenodd" clip-rule="evenodd" d="M8.18375 7.16821C7.18562 6.65704 6.00001 7.3819 6.00001 8.50331V9.48467C6.00001 10.7982 6.73548 12.0012 7.90462 12.5999L15.8955 16.6922C16.8936 17.2034 18.0792 16.4785 18.0792 15.3571V14.3758C18.0792 13.0622 17.3438 11.8593 16.1746 11.2605L12.5881 9.42376L13.685 8.86201L16.6305 10.3704C18.1336 11.1403 19.0792 12.6869 19.0792 14.3758V15.3571C19.0792 17.2261 17.1032 18.4342 15.4397 17.5823L7.4488 13.49C5.94561 12.7202 5.00001 11.1735 5.00001 9.48467V8.50331C5.00001 6.6343 6.97602 5.4262 8.63957 6.27814L11.4912 7.7385L10.3943 8.30025L8.18375 7.16821Z" fill="url(#paint0_linear_2_9)"/>
<path fill-rule="evenodd" clip-rule="evenodd" d="M10.3942 8.86201L7.44879 10.3704C7.21679 10.4893 6.99807 10.6266 6.79406 10.7801C6.93875 11.0822 7.13345 11.359 7.37056 11.598C7.53628 11.4709 7.71473 11.3578 7.90462 11.2605L11.4912 9.42376L10.3942 8.86201ZM13.685 8.30025L12.5881 7.7385L15.4397 6.27814C17.1032 5.4262 19.0792 6.6343 19.0792 8.50331V9.48467C19.0792 10.1764 18.9206 10.8442 18.63 11.4446C18.4146 11.1469 18.166 10.8723 17.8878 10.6267C18.0127 10.265 18.0792 9.87984 18.0792 9.48467V8.50331C18.0792 7.3819 16.8936 6.65704 15.8955 7.16821L13.685 8.30025ZM16.7087 12.2625C16.543 12.3895 16.3645 12.5027 16.1746 12.5999L12.5881 14.4367L13.685 14.9984L16.6304 13.49C16.8624 13.3712 17.0812 13.2339 17.2852 13.0804C17.1405 12.7782 16.9458 12.5015 16.7087 12.2625ZM11.4912 16.1219L10.3942 15.5602L8.18374 16.6922C7.18561 17.2034 6 16.4785 6 15.3571V14.3758C6 13.9806 6.06657 13.5954 6.19148 13.2337C5.91327 12.9882 5.66465 12.7136 5.44922 12.4158C5.15863 13.0162 5 13.684 5 14.3758V15.3571C5 17.2261 6.97601 18.4342 8.63956 17.5823L11.4912 16.1219Z" fill="#F5F1FF"/>
<path fill-rule="evenodd" clip-rule="evenodd" d="M18.5792 6.99934C17.886 6.08381 16.5884 5.68987 15.4397 6.27814L9.23692 9.4547V10.5782L15.8955 7.16821C16.8936 6.65704 18.0792 7.3819 18.0792 8.50331V9.48467C18.0792 9.72526 18.0546 9.96213 18.0071 10.1923L18.5792 10.0165V6.99934Z" fill="#F5F1FF"/>
</g>
<path d="M18.2435 5.7559C23.1508 10.6619 24.4768 17.2919 21.2055 20.5619C17.9341 23.8332 11.3055 22.5072 6.39882 17.6012C6.23215 17.4346 6.08015 17.2612 5.92215 17.0906L8.86682 14.1459C12.6828 17.9619 17.5441 19.2886 19.7241 17.1072C21.9048 14.9272 20.5788 10.0652 16.7628 6.24923L16.7781 6.26323C16.7728 6.25856 16.7681 6.25323 16.7641 6.24856C12.4028 1.88723 6.43615 0.783233 3.43815 3.78123C1.98815 5.23056 1.50682 7.3759 1.87949 9.69589C1.30749 6.97456 1.77948 4.4519 3.43815 2.79456C6.70882 -0.476767 13.3375 0.849233 18.2435 5.7559Z" fill="#F5F1FF"/>
<path d="M14.1433 23.1992C13.9414 23.1992 13.7402 23.1378 13.5672 23.0149L9.49999 20.1092L5.43281 23.0149C5.08587 23.2614 4.62114 23.2614 4.2766 23.0109C3.93205 22.7619 3.78703 22.3206 3.91603 21.9184L5.43281 17.1661L1.40248 14.2126C1.05955 13.9612 0.916923 13.5191 1.04833 13.1153C1.17973 12.7131 1.55633 12.4402 1.98099 12.437L6.98645 12.4059L8.56252 7.67354C8.69713 7.27133 9.07453 7 9.49999 7C9.92546 7 10.3037 7.27133 10.4375 7.67354L12.0135 12.4059L17.0182 12.437C17.4445 12.4402 17.8211 12.7131 17.9517 13.1153C18.0831 13.5191 17.9404 13.9612 17.5983 14.2126L13.5664 17.1661L15.084 21.9184C15.2138 22.3206 15.0671 22.7619 14.7242 23.0109C14.5503 23.137 14.3468 23.1992 14.1433 23.1992Z" fill="url(#paint1_linear_2_9)"/>
<defs>
<linearGradient id="paint0_linear_2_9" x1="19.0792" y1="6" x2="8.92133" y2="20.5905" gradientUnits="userSpaceOnUse">
<stop stop-color="#FF00A8"/>
<stop offset="1" stop-color="#FFAA00"/>
</linearGradient>
<linearGradient id="paint1_linear_2_9" x1="15.4226" y1="22.9607" x2="1.06709" y2="6.14483" gradientUnits="userSpaceOnUse">
<stop stop-color="#FFAA00"/>
<stop offset="1" stop-color="#FF00A8"/>
</linearGradient>
</defs>
</svg>
