<svg xmlns="http://www.w3.org/2000/svg" width="60" height="14" viewBox="0 0 60 14" fill="none">
<g clip-path="url(#clip0_1_57)">
<path fill-rule="evenodd" clip-rule="evenodd" d="M4.37882 9.48607L4.65173 8.59181C4.71376 8.38855 4.6458 8.16588 4.48341 8.04026L4.1417 7.84615L3.88534 7.70053L3.4773 7.46875L2.46425 6.89329L2.1919 6.73859C1.82877 6.45769 2.01539 5.84615 2.46425 5.84615H2.69884H2.88224H3.91474H4.47354H4.67009H5.1901C5.39083 5.84615 5.56873 5.70854 5.63076 5.50528L5.91171 4.54788L6.14759 3.74404L6.47266 2.63629L6.49289 2.56734L6.55934 2.34088C6.69805 1.88637 7.30197 1.88637 7.44067 2.34088L7.50713 2.619L7.50999 2.63099L7.77067 3.72199C8.15315 3.57848 8.56741 3.5 9.00001 3.5H9.77393L9.38592 1.87609L9.37158 1.8161L9.35358 1.75711C8.63862 -0.585708 5.3614 -0.585699 4.64644 1.75711L4.64329 1.7674L4.64026 1.77773L4.03329 3.84615H2.46425C1.19478 3.84615 0.373073 4.74343 0.110673 5.60326C-0.149949 6.45728 0.0286118 7.59371 0.968186 8.32052L1.08055 8.40744L1.20406 8.4776L2.38995 9.15123L1.89648 10.7682C1.56893 11.8416 1.98967 12.8942 2.754 13.4855C3.53767 14.0917 4.76037 14.248 5.74612 13.4855L6.15539 13.1689C5.74373 12.6174 5.50001 11.9332 5.50001 11.1921C5.50001 11.1771 5.50011 11.1621 5.50032 11.1471L4.83199 11.6641L4.5224 11.9035C4.15928 12.1844 3.67069 11.8065 3.80939 11.352L3.8904 11.0865L4.22209 9.99964L4.37882 9.48607Z" fill="url(#paint0_linear_1_57)"/>
<path d="M15 5H9C7.89543 5 7 5.89543 7 7V7C7 8.10457 7.89543 9 9 9H12C13.1046 9 14 9.89543 14 11V11C14 12.1046 13.1046 13 12 13H9C7.89543 13 7 12.1046 7 11V11M15.5 5H23.5M19.5 2V11C19.5 12.1046 20.3954 13 21.5 13H23.5M25 9H29C30.1046 9 31 8.10457 31 7V7C31 5.89543 30.1046 5 29 5H28C26.3431 5 25 6.34315 25 8V9ZM25 9V11C25 12.1046 25.8954 13 27 13H29C30.1046 13 31 12.1046 31 11V11M37.5 13H35.5C34.3954 13 33.5 12.1046 33.5 11V2.5H31.5M43 13H41C39.8954 13 39 12.1046 39 11V2.5H37M54 14V9M54 4V6.5V9M54 9V7.5C54 6.11929 55.1193 5 56.5 5H57C58.1046 5 59 5.89543 59 7V7M44.5 7V7C44.5 5.89543 45.3954 5 46.5 5H47.5C49.1569 5 50.5 6.34315 50.5 8V9.5M50.5 13H46.25C45.2835 13 44.5 12.2165 44.5 11.25V11.25C44.5 10.2835 45.2835 9.5 46.25 9.5H50.5M50.5 13V9.5M50.5 13H52.5" stroke="#0A001C" stroke-width="2"/>
</g>
<defs>
<linearGradient id="paint0_linear_1_57" x1="6.73475" y1="-3.23087" x2="-1.22962" y2="16.5924" gradientUnits="userSpaceOnUse">
<stop stop-color="#FF00A8"/>
<stop offset="1" stop-color="#FFAA00"/>
</linearGradient>
<clipPath id="clip0_1_57">
<rect width="60" height="14" fill="white"/>
</clipPath>
</defs>
</svg>
